#!OML:ASF F:\VICON\USERDATA\INSTALL\rory3\rory3.ASF
:FULLY-SPECIFIED
:DEGREES
2613
root -1.55214 17.1724 -3.45665 44.8721 6.37221 -3.81382
lowerback 55.7439 1.9777 -0.336687
upperback 8.87764 2.58186 3.07991
thorax -11.4675 0.96024 2.38992
lowerneck -39.9532 -3.65405 -10.6999
upperneck 19.6037 0.242118 2.74558
head 12.8932 -0.348668 2.81876
rclavicle -1.81888e-014 -6.78353e-015
rhumerus 32.9741 2.07607 -49.1015
rradius 47.0613
rwrist 31.0726
rhand -32.6887 5.13416
rfingers 7.12502
rthumb -5.91367 -24.7633
lclavicle -1.81888e-014 -6.78353e-015
lhumerus 31.0963 -7.53746 47.5053
lradius 40.508
lwrist -13.1823
lhand -21.0348 17.9202
lfingers 7.12502
lthumb 5.34072 47.8329
rfemur -68.6774 -9.11354 19.3354
rtibia 32.108
rfoot -6.15069 -8.28668
rtoes 3.45761
lfemur -71.3138 5.72363 -7.54386
ltibia 35.3455
lfoot -3.80129 5.96323
ltoes -25.0846
2614
root -1.54875 17.1559 -3.47931 44.8471 6.35769 -3.78299
lowerback 54.1167 1.90194 -0.394268
upperback 8.92936 2.47969 3.10025
thorax -11.261 0.933766 2.48005
lowerneck -39.4297 -3.4764 -10.3079
upperneck 19.2399 0.324126 2.28536
head 12.6591 -0.34058 2.58059
rclavicle 2.78299e-015 -1.61513e-016
rhumerus 31.6929 2.9111 -49.3642
rradius 47.6566
rwrist 31.1928
rhand -32.8428 5.27744
rfingers 7.12502
rthumb -6.06244 -24.6158
lclavicle 2.78299e-015 -1.61513e-016
lhumerus 29.4279 -8.41969 47.8933
lradius 41.2747
lwrist -12.4914
lhand -19.747 18.4772
lfingers 7.12502
lthumb 6.58404 48.3548
rfemur -68.8598 -9.0274 19.1445
rtibia 32.3847
rfoot -6.25592 -8.46761
rtoes 3.15148
lfemur -71.5932 5.83179 -7.76495
ltibia 35.6873
lfoot -3.81933 5.71949
ltoes -25.4273
2615
root -1.54599 17.1406 -3.49991 44.8153 6.44066 -3.82606
lowerback 52.4783 1.77069 -0.322827
upperback 8.96664 2.37923 3.11962
thorax -11.0381 0.905169 2.51036
lowerneck -38.9309 -3.33096 -10.1144
upperneck 18.9528 0.402814 2.08523
head 12.4609 -0.311147 2.48084
rclavicle -1.40143e-014 -1.56543e-014
rhumerus 30.4043 3.7291 -49.6275
rradius 48.3548
rwrist 30.8988
rhand -32.7999 5.33791
rfingers 7.12502
rthumb -6.02106 -24.5565
lclavicle -1.40143e-014 -1.56543e-014
lhumerus 27.8198 -9.27389 48.3368
lradius 41.8964
lwrist -11.9293
lhand -19.1523 18.7723
lfingers 7.12502
lthumb 7.15812 48.6312
rfemur -69.0318 -9.03563 19.2196
rtibia 32.6489
rfoot -6.25022 -8.57267
rtoes 2.65842
lfemur -71.8781 5.94386 -7.8513
ltibia 36.0527
lfoot -3.93896 5.48978
ltoes -25.3871
2616
root -1.54376 17.124 -3.52097 44.7576 6.41922 -3.9191
lowerback 50.94 1.73671 -0.362264
upperback 8.91597 2.33275 3.15456
thorax -10.9064 0.899225 2.58523
lowerneck -38.4714 -3.22827 -10.0859
upperneck 18.8976 0.44899 2.14241
head 12.3642 -0.277372 2.50714
rclavicle -1.39149e-015 -8.77759e-015
rhumerus 29.0438 4.58481 -49.9041
rradius 49.0689
rwrist 30.6381
rhand -32.8677 5.35231
rfingers 7.12502
rthumb -6.08653 -24.5403
lclavicle -1.39149e-015 -8.77759e-015
lhumerus 26.1722 -9.94462 49.1024
lradius 42.3632
lwrist -11.812
lhand -18.7668 18.7927
lfingers 7.12502
lthumb 7.53027 48.6387
rfemur -69.1844 -8.88919 19.1762
rtibia 32.9066
rfoot -6.3118 -8.69303
rtoes 2.73243
lfemur -72.068 6.00809 -7.76102
ltibia 36.3949
lfoot -4.02644 5.51312
ltoes -25.2265
2617
root -1.54477 17.1032 -3.54197 44.6855 6.23174 -3.99013
lowerback 49.4796 1.82213 -0.60971
upperback 8.78331 2.32333 3.18152
thorax -10.8597 0.912107 2.73387
lowerneck -37.8805 -3.08964 -9.99228
upperneck 18.7838 0.508015 2.14388
head 12.2227 -0.239339 2.50214
rclavicle 2.03754e-014 2.14812e-014
rhumerus 27.64 5.51925 -50.1167
rradius 49.6469
rwrist 30.6214
rhand -33.1032 5.52528
rfingers 7.12502
rthumb -6.31385 -24.3606
lclavicle 2.03754e-014 2.14812e-014
lhumerus 24.4031 -10.6489 49.843
lradius 42.9682
lwrist -11.4982
lhand -18.5031 18.8686
lfingers 7.12502
lthumb 7.78478 48.7053
rfemur -69.3546 -8.58678 18.9505
rtibia 33.1454
rfoot -6.34825 -8.94156
rtoes 1.76584
lfemur -72.2072 6.16664 -7.80813
ltibia 36.709
lfoot -4.07714 5.54832
ltoes -25.2588
2618
root -1.54581 17.0902 -3.5607 44.644 6.15221 -3.99402
lowerback 47.0036 1.81157 -0.809439
upperback 9.67269 2.23789 3.2094
thorax -10.7424 0.907733 2.88221
lowerneck -37.4637 -2.96061 -9.84808
upperneck 18.6178 0.546751 2.15876
head 12.0884 -0.202402 2.48997
rclavicle -1.35174e-014 -7.97313e-015
rhumerus 26.3487 6.33288 -50.4867
rradius 50.1302
rwrist 30.7455
rhand -33.2425 5.56372
rfingers 7.12502
rthumb -6.44836 -24.3181
lclavicle -1.35174e-014 -7.97313e-015
lhumerus 22.7028 -11.1955 50.5735
lradius 43.6834
lwrist -11.1272
lhand -18.6015 18.6456
lfingers 7.12502
lthumb 7.68983 48.4858
rfemur -69.481 -8.36574 18.6905
rtibia 33.3647
rfoot -6.43711 -9.22725
rtoes 0.996776
lfemur -72.3852 6.24766 -7.90237
ltibia 36.9869
lfoot -4.11683 5.51271
ltoes -25.3512
2619
root -1.54249 17.0818 -3.57424 44.5798 6.21028 -4.14929
lowerback 45.3778 1.71555 -0.719805
upperback 9.54703 2.18099 3.2477
thorax -10.4623 0.893478 2.9138
lowerneck -37.0251 -2.83526 -9.76742
upperneck 18.3798 0.602914 2.20622
head 11.921 -0.155293 2.50232
rclavicle 1.21259e-014 1.27797e-014
rhumerus 24.9763 7.14286 -50.9058
rradius 50.7458
rwrist 30.7714
rhand -33.312 5.31695
rfingers 7.12502
rthumb -6.51538 -24.5628
lclavicle 1.21259e-014 1.27797e-014
lhumerus 21.0994 -11.7407 51.2724
lradius 44.2139
lwrist -10.747
lhand -18.9565 18.3778
lfingers 7.12502
lthumb 7.34714 48.2302
rfemur -69.5515 -8.11964 18.6136
rtibia 33.611
rfoot -6.6626 -9.38823
rtoes 1.08576
lfemur -72.519 6.32628 -7.75902
ltibia 37.2327
lfoot -4.14668 5.50691
ltoes -25.3515
2620
root -1.53809 17.0677 -3.58549 44.5124 6.18925 -4.2796
lowerback 43.7901 1.64749 -0.695283
upperback 9.35634 2.12479 3.27775
thorax -10.2414 0.880679 2.9691
lowerneck -36.3926 -2.66787 -9.64325
upperneck 18.0317 0.697473 2.15459
head 11.6791 -0.0990054 2.47372
rclavicle -1.13307e-014 -7.77745e-015
rhumerus 23.5501 7.99662 -51.314
rradius 51.3148
rwrist 30.672
rhand -33.4798 5.09368
rfingers 7.12502
rthumb -6.67743 -24.781
lclavicle -1.13307e-014 -7.77745e-015
lhumerus 19.4681 -12.4054 51.9716
lradius 44.6117
lwrist -10.3199
lhand -19.2169 18.6247
lfingers 7.12502
lthumb 7.09573 48.4857
rfemur -69.6318 -7.86847 18.4724
rtibia 33.8915
rfoot -7.00224 -9.49993
rtoes 1.88471
lfemur -72.6275 6.40433 -7.66342
ltibia 37.4532
lfoot -4.17372 5.58514
ltoes -25.3962
2621
root -1.53455 17.0526 -3.60307 44.5189 6.18143 -4.13187
lowerback 42.3593 1.50091 -0.721787
upperback 9.06407 1.94805 3.22972
thorax -10.1461 0.818495 3.01709
lowerneck -35.6466 -2.53218 -9.52825
upperneck 17.6286 0.72425 2.16411
head 11.4035 -0.0630379 2.45575
rclavicle -1.31198e-014 -2.02512e-014
rhumerus 22.1517 8.83079 -51.7879
rradius 51.7556
rwrist 30.6027
rhand -33.6978 5.15084
rfingers 7.12502
rthumb -6.88785 -24.7171
lclavicle -1.31198e-014 -2.02512e-014
lhumerus 17.7544 -12.9389 52.7802
lradius 45.0436
lwrist -10.0474
lhand -18.7088 19.0969
lfingers 7.12502
lthumb 7.58619 48.9408
rfemur -69.8023 -7.90675 18.2032
rtibia 34.2032
rfoot -7.26555 -9.59508
rtoes 2.85559
lfemur -72.8539 6.3749 -7.93702
ltibia 37.6666
lfoot -4.1668 5.5276
ltoes -25.5514
2622
root -1.53207 17.0423 -3.61821 44.532 6.22328 -3.98094
lowerback 40.8506 1.34216 -0.573973
upperback 8.80875 1.80726 3.07798
thorax -9.9534 0.768995 2.84641
lowerneck -35.1932 -2.56808 -9.47151
upperneck 17.4728 0.49115 2.53272
head 11.2842 -0.105203 2.54093
rclavicle 2.18663e-014 1.87603e-015
rhumerus 20.6261 9.39566 -52.4724
rradius 52.1876
rwrist 30.6132
rhand -33.8182 5.07211
rfingers 7.12502
rthumb -7.00408 -24.792
lclavicle 2.18663e-014 1.87603e-015
lhumerus 16.2989 -13.5312 53.4835
lradius 45.4586
lwrist -9.97363
lhand -18.5302 19.1765
lfingers 7.12502
lthumb 7.75858 49.0142
rfemur -69.9811 -7.99887 18.0222
rtibia 34.5321
rfoot -7.48867 -9.68564
rtoes 2.96148
lfemur -73.0759 6.35257 -8.21287
ltibia 37.8704
lfoot -4.20602 5.38182
ltoes -25.4337
2623
root -1.53107 17.0319 -3.62854 44.4974 6.18178 -3.97621
lowerback 39.2643 1.28068 -0.469697
upperback 8.59401 1.75723 2.92957
thorax -9.67225 0.757279 2.66426
lowerneck -34.6256 -2.56745 -9.30356
upperneck 17.2433 0.269171 2.80264
head 11.1197 -0.148262 2.57103
rclavicle -5.66536e-015 -4.38569e-015
rhumerus 19.0783 9.88436 -53.164
rradius 52.592
rwrist 30.5858
rhand -33.6534 5.24459
rfingers 7.12502
rthumb -6.84501 -24.6248
lclavicle -5.66536e-015 -4.38569e-015
lhumerus 14.9807 -14.1713 54.0714
lradius 45.7572
lwrist -9.79368
lhand -18.6768 19.1732
lfingers 7.12502
lthumb 7.61715 49.0161
rfemur -70.1394 -7.87817 17.8682
rtibia 34.864
rfoot -7.65532 -9.82335
rtoes 2.32863
lfemur -73.1994 6.4422 -8.35532
ltibia 38.0629
lfoot -4.24675 5.28337
ltoes -25.5476
2624
root -1.53025 17.0236 -3.64001 44.4555 6.12752 -3.99374
lowerback 37.7711 1.2081 -0.340157
upperback 8.30857 1.69897 2.75989
thorax -9.47502 0.740997 2.44921
lowerneck -33.8136 -2.48137 -9.0784
upperneck 16.9205 0.180196 2.81764
head 10.8746 -0.163155 2.51698
rclavicle -6.55989e-015 -1.00635e-014
rhumerus 17.5044 10.399 -53.9228
rradius 52.9449
rwrist 30.5618
rhand -33.4024 5.54173
rfingers 7.12502
rthumb -6.60264 -24.3353
lclavicle -6.55989e-015 -1.00635e-014
lhumerus 13.5801 -14.8358 54.6374
lradius 45.9798
lwrist -9.4903
lhand -18.1858 19.0457
lfingers 7.12502
lthumb 8.09101 48.8708
rfemur -70.2744 -7.71949 17.7033
rtibia 35.1567
rfoot -7.78702 -9.99068
rtoes 1.92751
lfemur -73.3046 6.51637 -8.43093
ltibia 38.2597
lfoot -4.27418 5.28141
ltoes -25.4743
